PathFileType	4	(X/Y/Z)	69_2_112_p1_0-271_filt_butterworth.trc
DataRate	CameraRate	NumFrames	NumMarkers	Units	OrigDataRate	OrigDataStartFrame	OrigNumFrames
60.0	60.0	5	27	m	60.0	203	271
Frame#	Time	RHip			RKnee			RAnkle			RBigToe			RSmallToe			RHeel			LHip			LKnee			LAnkle			LBigToe			LSmallToe			LHeel			Neck			Head			Nose			RShoulder			RElbow			RWrist			RThumb			RIndex			RPinky			LShoulder			LElbow			LWrist			LThumb			LIndex			LPinky			
		X1	Y1	Z1	X2	Y2	Z2	X3	Y3	Z3	X4	Y4	Z4	X5	Y5	Z5	X6	Y6	Z6	X7	Y7	Z7	X8	Y8	Z8	X9	Y9	Z9	X10	Y10	Z10	X11	Y11	Z11	X12	Y12	Z12	X13	Y13	Z13	X14	Y14	Z14	X15	Y15	Z15	X16	Y16	Z16	X17	Y17	Z17	X18	Y18	Z18	X19	Y19	Z19	X20	Y20	Z20	X21	Y21	Z21	X22	Y22	Z22	X23	Y23	Z23	X24	Y24	Z24	X25	Y25	Z25	X26	Y26	Z26	X27	Y27	Z27	
203	3.3833333333333333	0.27770716260333644	0.5964895017169408	0.5932209691348568	0.2534557807131491	0.5621076262505764	0.9426976887906863	0.19673142092649126	0.596417974393489	1.3409923632915173	0.2743467692882734	0.361227350066236	1.2954118828158012	0.3193998490209394	0.41989589945130573	1.3103201898091652	0.14792577139768037	0.7215666150043227	1.450834155941743	0.04888784164906475	0.5259357318398232	0.5968624977368534	0.03380046775200872	0.5423462273763061	0.9648599365892898	0.03287546762938098	0.5766706209312894	1.3527697475671716	0.10839382971123712	0.3590803526414146	1.3093603051264437	0.03294031507304254	0.42332320945823615	1.3317980176493753	0.02073075333070118	0.6474238689366492	1.430303772790885	0.21378814622287726	0.5111683089756366	-0.0015397229631460502	0.24948162314140945	0.47209758230306526	-0.2456325155274407	0.2549139322467354	0.4523849273582733	-0.11634790380627945	0.3661876148869967	0.5573657867015298	0.10997288543773445	0.4368991942889961	0.5837935102172632	0.34535355537576706	0.4908737073765638	0.5468619748739489	0.572599141142364	0.45583215702697094	0.5062875958598546	0.6881153742811347	0.5229754957293545	0.49567177412190794	0.724406761432127	0.5326991295571069	0.5743256474968506	0.7232106420547321	0.05737347949477533	0.45934340798743006	0.09501398572434523	-0.0231808354116435	0.43999288026859107	0.3362615351712203	-0.032504387161383305	0.3645640980933789	0.5656713152120421	0.019766172519435812	0.3146528225988144	0.6477277060158256	-0.016353796202860035	0.32851481285955025	0.6821506370018182	-0.05969362751963327	0.35233806031125536	0.6814827202227924
204	3.4	0.2791678577720219	0.5927364321706033	0.5933332415230355	0.25730638427558467	0.5554920110735102	0.9396810999678913	0.19692704307630154	0.5960858697817073	1.3406788124111337	0.2775649089860801	0.35808155530409935	1.2943618192704125	0.32015319613996307	0.4188496810488928	1.3101767160788267	0.148393501993419	0.7155343503212312	1.448490534016827	0.04888339875191294	0.5270159122774261	0.5985446102254303	0.033959232859380115	0.5427145817677512	0.9645963934052811	0.03294332616663521	0.5765340820534839	1.3527494826836786	0.109392267225807	0.35954083751205607	1.3100767222263285	0.03259480123881957	0.42378673925510046	1.3322059099362653	0.020848628829766364	0.6463847295768024	1.4279077924026555	0.21379084656120206	0.5112272406453212	-0.0015643386028619491	0.2502985128551026	0.47301954847023453	-0.2456599524042067	0.2549112685319607	0.4523816068724952	-0.11630718074988447	0.36503888442344656	0.5565734706556182	0.1098513893601814	0.4339540278196542	0.5804528792910354	0.34707814948283483	0.48068294285681806	0.5509551018697902	0.580677409131024	0.4454697228700169	0.49098684978064516	0.6900212392208519	0.5082912590197175	0.4955971527826214	0.7307446376787047	0.5300179649743338	0.5531142150094819	0.7237282315110396	0.057399227549209245	0.45903172110633256	0.09497540973716496	-0.02007197179078803	0.43660452500576113	0.3345657845324289	-0.021950727599362327	0.35575090427728073	0.5638549233110127	0.030523419171919412	0.30316264091878764	0.6441734683188298	0.0037294805647897855	0.31514920001597635	0.6775487339534061	-0.05591299535868756	0.35099027484956485	0.6852624144456781
205	3.4166666666666665	0.2804317362864105	0.5870475469978707	0.59348993801643	0.2602406518548017	0.5499663596647844	0.9358601346930228	0.19720484755305312	0.5956349495195754	1.3403401288472339	0.2798221381088484	0.3562827117010396	1.293517689615791	0.3199067468113691	0.41646742036672785	1.308929342027913	0.14865622732008865	0.7112763067149745	1.4470118312975389	0.049368804068236155	0.5277138514521569	0.5993914904869105	0.034359886549624734	0.5426246990179812	0.9638412903563971	0.03265390235701053	0.5761242342312284	1.352727605036344	0.11162821039175419	0.3597572106599358	1.308845789682964	0.033560951600440654	0.422720641622862	1.3313487489176554	0.021124039543514165	0.6460042831495677	1.4269978181715413	0.2137829209842137	0.5112858581496545	-0.0015399092426233755	0.250633422593041	0.47402491480610576	-0.24565209731049797	0.2549089250496908	0.45239903754494404	-0.11627647525320972	0.3641952398642911	0.5558984769436031	0.109407013157728	0.43139802949892986	0.5754114642978276	0.3498456847138844	0.46789131945598383	0.5520029627803974	0.5889585437512763	0.4382932008405043	0.47506616799384127	0.6932841998641629	0.4882058042874626	0.5004235495292045	0.7376741495478786	0.5280360274111402	0.5296756391037426	0.7225515302716291	0.05742225953075404	0.45882559973333076	0.09500611097275843	-0.014065184726397067	0.43009291305377323	0.3321388209211293	-0.006376331103352434	0.3417823508036802	0.5609490216264013	0.03872580632616978	0.3027080881419645	0.6434969702036875	0.02047526827936809	0.30481799512913643	0.6734261801033224	-0.0484971305364812	0.349003489646194	0.6884700161260016
206	3.433333333333333	0.28035705451483783	0.5815537917372816	0.5939611261789841	0.2608198070329836	0.5482286141543974	0.9329956019133017	0.1971933209660688	0.5956265150632328	1.3403403254295223	0.27979251801033134	0.35598270951981176	1.2933877050511378	0.3192126248528836	0.4111013985916653	1.3056903750891105	0.14833311942052063	0.7113829745463578	1.447925321184004	0.049839208073325286	0.5274173618721318	0.5996662541440544	0.035698167987892694	0.5411366402258884	0.9621889881477751	0.031673658470077186	0.5753262930095101	1.352716695670285	0.11430370282111035	0.3597448975640475	1.305975464337794	0.03708843878373026	0.418583664323232	1.3281076892332235	0.020803044620179054	0.6473902263540826	1.4292705373549655	0.2137784489351734	0.5113427692421803	-0.0015872257677598445	0.2505942958432504	0.475487258659504	-0.2456183149023559	0.2549112465725915	0.45240551419439895	-0.11636001068818952	0.3638463455881056	0.5555121330796047	0.10849697263744369	0.42951291297589606	0.5703175219235811	0.35316766347697975	0.45528320244975257	0.5469034531647099	0.5950221557830697	0.42925011360722304	0.4662570120000697	0.6979098692252268	0.46666755600094656	0.503830176504599	0.7433248431989985	0.5223196297238366	0.5138748966500154	0.7239997446708566	0.05745669097036753	0.45876982655733517	0.09513795530295403	-0.005462229744801522	0.42159069867971954	0.3301778214312365	0.010653211404408409	0.3274715338254647	0.5576431898802462	0.04730435479487248	0.31371549361630735	0.6457433723704376	0.033172447455313926	0.3000342318598843	0.6711853815243798	-0.034532959194152155	0.3432406423039544	0.6892940024565687
207	3.45	0.2786710854335913	0.5780686680204858	0.5945232331768787	0.259524053494972	0.5490944694212829	0.9319668843747753	0.1961143362084829	0.5971226521829589	1.34133880353801	0.2775465232910814	0.35635043120193266	1.2935951376309014	0.3186113613075805	0.4028421387156828	1.300539475717673	0.14742183226563316	0.7158997950315905	1.451170395164368	0.05010520590305455	0.5246237428800288	0.599331423676781	0.03872211929573729	0.5375474937851816	0.9595887590006758	0.030134798932199107	0.5744027470856451	1.3527225512966985	0.11609154056059365	0.35979455305863284	1.3035673026514742	0.042933041517324556	0.41163169831325463	1.3228375659493148	0.019006506731195687	0.6514088062377613	1.4341959468349184	0.21378805449171806	0.5113992540164453	-0.0019793459583142855	0.25042571818756276	0.478054725378025	-0.2455410361763146	0.25493780114949915	0.4523547890240248	-0.1170685546423912	0.3637567547507071	0.5553963303740909	0.1073629192483751	0.4274686185343927	0.5681447817884432	0.35635650040837863	0.44591177159792283	0.5339170647314933	0.597248026311732	0.4139954872172603	0.46554181342313966	0.7010787481640764	0.44882365263229285	0.49822984455946107	0.745154526594642	0.507278046819934	0.510570000999265	0.7311044555660042	0.05749335213920183	0.45878108250531274	0.09530874606910382	0.004955070475417538	0.4126043536209918	0.3288730461154067	0.024727950311550746	0.31904037739811625	0.5553115541958489	0.06204725970897094	0.32746267719955285	0.6489221189816596	0.04739576315118518	0.3000071729414236	0.6704485673536719	-0.013641569646760164	0.3330585710724705	0.6880856208066332
